<svg width="86" height="55" viewBox="0 0 86 55" fill="none" xmlns="http://www.w3.org/2000/svg">
<path d="M5.38131 21.1816C5.7406 22.1397 6.23802 22.9589 6.87368 23.6392C7.50933 24.3196 8.26239 24.8403 9.13286 25.2013C10.0034 25.5623 10.9499 25.7428 11.9725 25.7428C12.9674 25.7428 13.9001 25.5553 14.7706 25.1804C15.6412 24.8054 16.4011 24.2778 17.0506 23.5975C17.7 22.9171 18.2044 22.1049 18.5637 21.1607C18.9229 20.2165 19.1025 19.1614 19.1025 17.995V0H23.4552V29.1584H19.144V26.4508C18.1768 27.4783 17.0367 28.2697 15.724 28.8252C14.4113 29.3806 12.995 29.6583 11.4751 29.6583C9.92738 29.6583 8.48345 29.3875 7.14307 28.846C5.80279 28.3045 4.64201 27.5339 3.66101 26.5342C2.68002 25.5344 1.90613 24.3335 1.33964 22.931C0.773054 21.5287 0.489807 19.9667 0.489807 18.2448V0H4.84243V17.995C4.84243 19.1614 5.02203 20.2234 5.38131 21.1816Z" fill="white"/>
<path d="M30.9579 0V10.622C31.9252 9.65004 33.0445 8.8795 34.3157 8.31016C35.5869 7.74083 36.9688 7.45621 38.461 7.45621C40.0087 7.45621 41.4594 7.74774 42.8137 8.3309C44.1678 8.91406 45.3422 9.70553 46.3372 10.7053C47.3321 11.7051 48.1198 12.8852 48.7001 14.2459C49.2804 15.6067 49.5706 17.0508 49.5706 18.5781C49.5706 20.1054 49.2804 21.5425 48.7001 22.8893C48.1198 24.2362 47.3321 25.4095 46.3372 26.4091C45.3422 27.4089 44.1678 28.2003 42.8137 28.7835C41.4594 29.3666 40.0086 29.6582 38.461 29.6582C36.9687 29.6582 35.58 29.3736 34.295 28.8042C33.0099 28.235 31.8837 27.4643 30.9165 26.4924V29.1583H26.7711V0H30.9579ZM31.4346 21.4523C31.8077 22.341 32.3259 23.1185 32.9892 23.785C33.6524 24.4515 34.4262 24.9792 35.3106 25.3679C36.195 25.7567 37.1484 25.9511 38.1709 25.9511C39.1658 25.9511 40.1054 25.7567 40.9897 25.3679C41.874 24.9792 42.6408 24.4516 43.2904 23.785C43.9398 23.1186 44.458 22.341 44.8449 21.4523C45.2318 20.5636 45.4252 19.6056 45.4252 18.5781C45.4252 17.5506 45.2318 16.5856 44.8449 15.683C44.458 14.7805 43.9398 13.9961 43.2904 13.3296C42.6409 12.6632 41.8741 12.1424 40.9897 11.7676C40.1053 11.3927 39.1658 11.2051 38.1709 11.2051C37.1761 11.2051 36.2364 11.3926 35.3521 11.7676C34.4678 12.1425 33.694 12.6632 33.0306 13.3296C32.3675 13.9961 31.8423 14.7805 31.4554 15.683C31.0686 16.5856 30.8751 17.5506 30.8751 18.5781C30.875 19.6056 31.0616 20.5636 31.4346 21.4523Z" fill="white"/>
<path d="M51.933 14.2877C52.4856 12.9547 53.2458 11.7815 54.2129 10.7679C55.1801 9.75428 56.3271 8.9559 57.6536 8.37274C58.9801 7.78958 60.4172 7.49805 61.9648 7.49805C63.4847 7.49805 64.8942 7.77576 66.1931 8.33108C67.4919 8.8865 68.6112 9.65714 69.5508 10.643C70.4904 11.6287 71.2228 12.7952 71.7478 14.142C72.2729 15.4888 72.5354 16.9537 72.5354 18.5366V19.9113H55.3322C55.4705 20.7721 55.7468 21.5705 56.1613 22.3063C56.5759 23.0422 57.094 23.6809 57.7158 24.2224C58.3376 24.764 59.0423 25.1875 59.83 25.4929C60.6176 25.7984 61.4535 25.9512 62.3379 25.9512C64.8528 25.9512 66.8841 24.9097 68.4317 22.827L71.4577 25.0763C70.4076 26.4926 69.1088 27.6034 67.5612 28.4087C66.0135 29.214 64.2725 29.6167 62.338 29.6167C60.7627 29.6167 59.2912 29.3389 57.9232 28.7836C56.5552 28.2282 55.3669 27.4506 54.3582 26.4508C53.3495 25.4511 52.555 24.2778 51.9746 22.931C51.3943 21.5842 51.1041 20.1193 51.1041 18.5364C51.1039 17.0369 51.3804 15.6206 51.933 14.2877ZM57.7573 12.6423C56.5827 13.6281 55.802 14.9402 55.4152 16.5787H68.3073C67.948 14.9402 67.1811 13.6281 66.0065 12.6423C64.832 11.6565 63.4571 11.1636 61.8819 11.1636C60.3067 11.1636 58.9318 11.6565 57.7573 12.6423Z" fill="white"/>
<path d="M80.37 13.1212C79.4857 14.0931 79.0434 15.4122 79.0434 17.0784V29.1585H74.8566V7.91442H79.0019V10.5387C79.527 9.67782 80.211 8.99742 81.0539 8.49758C81.8967 7.99765 82.8986 7.74768 84.0593 7.74768H85.5101V11.6633H83.7691C82.3874 11.6634 81.2543 12.1493 80.37 13.1212Z" fill="white"/>
<path d="M13.8583 50.5334H7.52616V36.5611H14.3133C16.0259 36.5863 17.2392 37.0824 17.9533 38.0493C18.383 38.6433 18.5979 39.3543 18.5979 40.1821C18.5979 41.0353 18.383 41.7209 17.9533 42.2391C17.7132 42.5298 17.3593 42.7952 16.8916 43.0354C17.6057 43.2945 18.1429 43.7052 18.5031 44.2677C18.8696 44.8301 19.0529 45.5126 19.0529 46.3152C19.0529 47.143 18.8444 47.8856 18.4273 48.5428C18.1619 48.9789 17.8301 49.3454 17.4319 49.6424C16.9833 49.9837 16.4524 50.2175 15.8394 50.3439C15.2328 50.4703 14.5724 50.5334 13.8583 50.5334ZM13.7919 44.3814H10.313V48.1068H13.7445C14.3575 48.1068 14.8346 48.0246 15.1759 47.8603C15.7952 47.557 16.1049 46.9756 16.1049 46.1161C16.1049 45.3894 15.8047 44.8901 15.2043 44.6184C14.8694 44.4667 14.3986 44.3877 13.7919 44.3814ZM15.2422 41.7178C15.6214 41.4903 15.811 41.0827 15.811 40.4949C15.811 39.844 15.5582 39.4143 15.0527 39.2058C14.6166 39.0604 14.0605 38.9877 13.3843 38.9877H10.313V42.0685H13.7445C14.3575 42.0685 14.8568 41.9516 15.2422 41.7178ZM21.6786 41.3196C22.3927 40.4096 23.6187 39.9546 25.3566 39.9546C26.4878 39.9546 27.4926 40.179 28.371 40.6277C29.2494 41.0763 29.6886 41.9231 29.6886 43.1681V47.9077C29.6886 48.2363 29.6949 48.6344 29.7075 49.1021C29.7265 49.456 29.7802 49.6961 29.8687 49.8225C29.9572 49.9489 30.0899 50.0532 30.2668 50.1353V50.5334H27.3283C27.2461 50.3249 27.1892 50.129 27.1576 49.9457C27.126 49.7625 27.1008 49.5539 27.0818 49.3201C26.709 49.7246 26.2792 50.069 25.7926 50.3533C25.2112 50.6883 24.554 50.8557 23.8209 50.8557C22.8857 50.8557 22.1115 50.5903 21.4985 50.0595C20.8919 49.5223 20.5885 48.764 20.5885 47.7845C20.5885 46.5143 21.0783 45.5948 22.0578 45.026C22.595 44.7164 23.3849 44.4952 24.4276 44.3625L25.3471 44.2487C25.8463 44.1855 26.2034 44.1065 26.4183 44.0117C26.8037 43.8474 26.9965 43.5915 26.9965 43.2439C26.9965 42.8205 26.848 42.5298 26.551 42.3718C26.2603 42.2075 25.8305 42.1254 25.2618 42.1254C24.6235 42.1254 24.1717 42.2834 23.9063 42.5993C23.7167 42.8332 23.5903 43.1491 23.5271 43.5473H20.9203C20.9772 42.6436 21.23 41.901 21.6786 41.3196ZM23.6882 48.5807C23.941 48.7893 24.2507 48.8935 24.6172 48.8935C25.1986 48.8935 25.7326 48.7229 26.2192 48.3817C26.7121 48.0404 26.9681 47.4179 26.987 46.5143V45.5095C26.8164 45.6169 26.6426 45.7054 26.4657 45.7749C26.295 45.8381 26.058 45.8981 25.7547 45.955L25.148 46.0687C24.5793 46.1698 24.1717 46.2931 23.9252 46.4384C23.5081 46.6849 23.2996 47.0672 23.2996 47.5854C23.2996 48.0467 23.4291 48.3785 23.6882 48.5807ZM35.0159 52.344C35.3066 52.5904 35.7964 52.7137 36.4852 52.7137C37.4584 52.7137 38.1093 52.3882 38.4379 51.7373C38.6528 51.3202 38.7602 50.6188 38.7602 49.6329V48.9694C38.5011 49.4117 38.2231 49.7435 37.926 49.9647C37.3889 50.3755 36.6906 50.5808 35.8311 50.5808C34.504 50.5808 33.4424 50.1164 32.6461 49.1874C31.8562 48.2521 31.4612 46.9882 31.4612 45.3957C31.4612 43.8601 31.8435 42.5709 32.6082 41.5282C33.3729 40.4791 34.4566 39.9546 35.8596 39.9546C36.3778 39.9546 36.8296 40.0336 37.2151 40.1916C37.8723 40.4633 38.4032 40.9626 38.8076 41.6893V40.2011H41.4334V50.0026C41.4334 51.336 41.209 52.3408 40.7603 53.017C39.9894 54.1798 38.5106 54.7612 36.3241 54.7612C35.0033 54.7612 33.9258 54.5021 33.0916 53.9839C32.2575 53.4657 31.7961 52.6916 31.7077 51.6615H34.6462C34.7221 51.9774 34.8453 52.205 35.0159 52.344ZM34.5609 47.0072C34.9274 47.8793 35.5847 48.3153 36.5326 48.3153C37.1645 48.3153 37.6985 48.0783 38.1346 47.6044C38.5706 47.1241 38.7887 46.3626 38.7887 45.3199C38.7887 44.3404 38.5801 43.5947 38.163 43.0828C37.7523 42.5709 37.1993 42.315 36.5042 42.315C35.5562 42.315 34.9022 42.7605 34.542 43.6515C34.3524 44.1255 34.2576 44.71 34.2576 45.4052C34.2576 46.0055 34.3587 46.5395 34.5609 47.0072ZM44.353 41.3196C45.0671 40.4096 46.293 39.9546 48.0309 39.9546C49.1621 39.9546 50.1669 40.179 51.0453 40.6277C51.9237 41.0763 52.3629 41.9231 52.3629 43.1681V47.9077C52.3629 48.2363 52.3692 48.6344 52.3819 49.1021C52.4008 49.456 52.4545 49.6961 52.543 49.8225C52.6315 49.9489 52.7642 50.0532 52.9411 50.1353V50.5334H50.0026C49.9204 50.3249 49.8635 50.129 49.832 49.9457C49.8004 49.7625 49.7751 49.5539 49.7561 49.3201C49.3833 49.7246 48.9535 50.069 48.4669 50.3533C47.8855 50.6883 47.2283 50.8557 46.4953 50.8557C45.56 50.8557 44.7858 50.5903 44.1729 50.0595C43.5662 49.5223 43.2628 48.764 43.2628 47.7845C43.2628 46.5143 43.7526 45.5948 44.7321 45.026C45.2693 44.7164 46.0592 44.4952 47.1019 44.3625L48.0214 44.2487C48.5207 44.1855 48.8777 44.1065 49.0926 44.0117C49.4781 43.8474 49.6708 43.5915 49.6708 43.2439C49.6708 42.8205 49.5223 42.5298 49.2253 42.3718C48.9346 42.2075 48.5049 42.1254 47.9361 42.1254C47.2978 42.1254 46.846 42.2834 46.5806 42.5993C46.391 42.8332 46.2646 43.1491 46.2014 43.5473H43.5946C43.6515 42.6436 43.9043 41.901 44.353 41.3196ZM46.3626 48.5807C46.6153 48.7893 46.925 48.8935 47.2915 48.8935C47.8729 48.8935 48.4069 48.7229 48.8935 48.3817C49.3864 48.0404 49.6424 47.4179 49.6613 46.5143V45.5095C49.4907 45.6169 49.3169 45.7054 49.14 45.7749C48.9693 45.8381 48.7324 45.8981 48.429 45.955L47.8224 46.0687C47.2536 46.1698 46.846 46.2931 46.5995 46.4384C46.1824 46.6849 45.9739 47.0672 45.9739 47.5854C45.9739 48.0467 46.1035 48.3785 46.3626 48.5807ZM59.9652 42.6941C58.8783 42.6941 58.1484 43.048 57.7755 43.7558C57.567 44.1539 57.4627 44.7669 57.4627 45.5948V50.5334H54.7422V40.2011H57.3205V42.0021C57.7376 41.3133 58.101 40.8425 58.4107 40.5897C58.9162 40.1663 59.5734 39.9546 60.3823 39.9546C60.4329 39.9546 60.474 39.9578 60.5056 39.9641C60.5435 39.9641 60.6225 39.9673 60.7425 39.9736V42.7415C60.5719 42.7226 60.4202 42.7099 60.2875 42.7036C60.1548 42.6973 60.0474 42.6941 59.9652 42.6941ZM67.5297 42.6941C66.4427 42.6941 65.7128 43.048 65.34 43.7558C65.1314 44.1539 65.0272 44.7669 65.0272 45.5948V50.5334H62.3066V40.2011H64.885V42.0021C65.3021 41.3133 65.6654 40.8425 65.9751 40.5897C66.4806 40.1663 67.1379 39.9546 67.9468 39.9546C67.9973 39.9546 68.0384 39.9578 68.07 39.9641C68.1079 39.9641 68.1869 39.9673 68.307 39.9736V42.7415C68.1363 42.7226 67.9847 42.7099 67.852 42.7036C67.7193 42.6973 67.6118 42.6941 67.5297 42.6941ZM78.7436 47.5001C78.6741 48.1131 78.3549 48.7356 77.7862 49.3675C76.9015 50.3723 75.6628 50.8747 74.0703 50.8747C72.7559 50.8747 71.5963 50.4513 70.5915 49.6045C69.5867 48.7577 69.0843 47.38 69.0843 45.4715C69.0843 43.6831 69.5361 42.3118 70.4398 41.3576C71.3498 40.4033 72.5284 39.9262 73.9755 39.9262C74.835 39.9262 75.6091 40.0873 76.298 40.4096C76.9868 40.7319 77.5555 41.2406 78.0042 41.9358C78.4087 42.5488 78.6709 43.2597 78.791 44.0686C78.8605 44.5426 78.8889 45.2251 78.8763 46.1161H71.8048C71.8427 47.1525 72.1682 47.8793 72.7812 48.2963C73.154 48.5554 73.6027 48.685 74.1272 48.685C74.6833 48.685 75.1352 48.527 75.4827 48.211C75.6723 48.0404 75.8398 47.8034 75.9851 47.5001H78.7436ZM76.0705 44.334C76.0262 43.6199 75.8082 43.0796 75.4164 42.7131C75.0309 42.3402 74.5506 42.1538 73.9755 42.1538C73.3499 42.1538 72.8633 42.3497 72.5157 42.7415C72.1745 43.1333 71.9596 43.6642 71.8712 44.334H76.0705Z" fill="#06C167"/>
</svg>
