<svg width="204" height="71" viewBox="0 0 204 71" fill="none" xmlns="http://www.w3.org/2000/svg">
<path d="M6.03224 23.3654C6.41909 24.397 6.95467 25.279 7.63909 26.0115C8.3235 26.7441 9.13433 27.3047 10.0716 27.6935C11.0089 28.0822 12.028 28.2765 13.129 28.2765C14.2003 28.2765 15.2045 28.0746 16.1418 27.6709C17.0792 27.2672 17.8974 26.6992 18.5966 25.9667C19.2959 25.2341 19.839 24.3596 20.2258 23.3429C20.6127 22.3263 20.806 21.1902 20.806 19.9343V0.55896H25.4926V31.9542H20.8507V29.0389C19.8092 30.1451 18.5817 30.9973 17.1684 31.5954C15.7549 32.1933 14.23 32.4924 12.5934 32.4924C10.927 32.4924 9.37235 32.2008 7.92915 31.6177C6.48605 31.0347 5.23623 30.205 4.17998 29.1286C3.12372 28.0521 2.29048 26.7591 1.68053 25.2491C1.07048 23.7391 0.765503 22.0573 0.765503 20.2034V0.55896H5.45202V19.9343C5.45202 21.1902 5.64539 22.3338 6.03224 23.3654Z" fill="#010202"/>
<path d="M33.5709 0.55896V11.9958C34.6123 10.9493 35.8175 10.1196 37.1862 9.50661C38.555 8.89359 40.0428 8.58714 41.6496 8.58714C43.3159 8.58714 44.878 8.90104 46.3361 9.52893C47.7941 10.1568 49.0586 11.009 50.1299 12.0855C51.2011 13.1619 52.0492 14.4326 52.6741 15.8977C53.2989 17.3629 53.6113 18.9177 53.6113 20.5622C53.6113 22.2066 53.2989 23.754 52.6741 25.2041C52.0492 26.6543 51.2011 27.9176 50.1299 28.9939C49.0586 30.0704 47.7941 30.9226 46.3361 31.5505C44.878 32.1784 43.3158 32.4922 41.6496 32.4922C40.0427 32.4922 38.5476 32.1858 37.1639 31.5728C35.7803 30.9599 34.5677 30.1301 33.5262 29.0836V31.9541H29.0629V0.55896H33.5709ZM34.0841 23.6568C34.4858 24.6137 35.0438 25.4509 35.7579 26.1685C36.4721 26.8861 37.3052 27.4543 38.2574 27.8729C39.2097 28.2915 40.2362 28.5008 41.3372 28.5008C42.4084 28.5008 43.42 28.2915 44.3722 27.8729C45.3244 27.4543 46.15 26.8862 46.8494 26.1685C47.5487 25.451 48.1066 24.6137 48.5231 23.6568C48.9397 22.7001 49.148 21.6686 49.148 20.5622C49.148 19.4559 48.9397 18.4168 48.5231 17.4451C48.1066 16.4733 47.5487 15.6287 46.8494 14.9111C46.1501 14.1935 45.3245 13.6328 44.3722 13.2292C43.4199 12.8256 42.4083 12.6237 41.3372 12.6237C40.266 12.6237 39.2543 12.8255 38.3021 13.2292C37.35 13.6329 36.5168 14.1935 35.8026 14.9111C35.0885 15.6287 34.5231 16.4733 34.1066 17.4451C33.69 18.4168 33.4817 19.4559 33.4817 20.5622C33.4816 21.6686 33.6825 22.7001 34.0841 23.6568Z" fill="#010202"/>
<path d="M56.155 15.9427C56.75 14.5075 57.5684 13.2442 58.6098 12.1529C59.6511 11.0615 60.8861 10.2019 62.3144 9.574C63.7427 8.9461 65.29 8.6322 66.9563 8.6322C68.5928 8.6322 70.1104 8.93121 71.509 9.52914C72.9074 10.1272 74.1125 10.9569 75.1242 12.0184C76.1359 13.0798 76.9245 14.3357 77.4898 15.7858C78.0552 17.236 78.3378 18.8132 78.3378 20.5176V21.9976H59.8149C59.9638 22.9246 60.2614 23.7842 60.7077 24.5764C61.1541 25.3688 61.7119 26.0565 62.3814 26.6395C63.0509 27.2227 63.8096 27.6787 64.6577 28.0075C65.5058 28.3364 66.4058 28.5009 67.358 28.5009C70.0659 28.5009 72.2529 27.3796 73.9192 25.137L77.1775 27.5589C76.0468 29.0838 74.6483 30.2799 72.982 31.1469C71.3156 32.014 69.441 32.4476 67.3581 32.4476C65.662 32.4476 64.0776 32.1485 62.6047 31.5506C61.1317 30.9526 59.8523 30.1153 58.7662 29.0389C57.6801 27.9624 56.8247 26.6992 56.1998 25.2491C55.5749 23.799 55.2625 22.2216 55.2625 20.5174C55.2623 18.9028 55.5599 17.3779 56.155 15.9427ZM62.426 14.171C61.1614 15.2325 60.3208 16.6453 59.9042 18.4094H73.7853C73.3985 16.6453 72.5727 15.2325 71.3081 14.171C70.0435 13.1096 68.5631 12.5789 66.8671 12.5789C65.171 12.5789 63.6906 13.1096 62.426 14.171Z" fill="#010202"/>
<path d="M86.7734 14.6868C85.8212 15.7333 85.3451 17.1535 85.3451 18.9476V31.9543H80.837V9.08056H85.3004V11.9061C85.8658 10.9792 86.6022 10.2466 87.5097 9.70845C88.4173 9.17017 89.4959 8.90103 90.7458 8.90103H92.3079V13.117H90.4333C88.9455 13.1171 87.7255 13.6403 86.7734 14.6868Z" fill="#010202"/>
<path d="M111.167 31.1564H102.358V11.7177H111.8C114.183 11.7529 115.871 12.443 116.864 13.7882C117.462 14.6146 117.761 15.6037 117.761 16.7554C117.761 17.9423 117.462 18.8962 116.864 19.6172C116.53 20.0216 116.038 20.3909 115.387 20.7249C116.381 21.0854 117.128 21.6569 117.629 22.4393C118.139 23.2218 118.394 24.1713 118.394 25.2879C118.394 26.4396 118.104 27.4727 117.524 28.387C117.154 28.9936 116.693 29.5036 116.139 29.9168C115.515 30.3915 114.776 30.7168 113.923 30.8927C113.079 31.0685 112.161 31.1564 111.167 31.1564ZM111.075 22.5976H106.235V27.7804H111.009C111.862 27.7804 112.525 27.6661 113 27.4375C113.862 27.0155 114.293 26.2066 114.293 25.011C114.293 23.9999 113.875 23.3053 113.04 22.9273C112.574 22.7163 111.919 22.6064 111.075 22.5976ZM113.093 18.8918C113.62 18.5753 113.884 18.0083 113.884 17.1906C113.884 16.2851 113.532 15.6872 112.829 15.3971C112.222 15.1949 111.448 15.0938 110.508 15.0938H106.235V19.3798H111.009C111.862 19.3798 112.556 19.2171 113.093 18.8918ZM122.047 18.338C123.04 17.0719 124.746 16.4389 127.164 16.4389C128.738 16.4389 130.135 16.751 131.358 17.3753C132.58 17.9995 133.191 19.1776 133.191 20.9096V27.5034C133.191 27.9606 133.199 28.5145 133.217 29.1651C133.243 29.6574 133.318 29.9915 133.441 30.1674C133.564 30.3432 133.749 30.4883 133.995 30.6025V31.1564H129.907C129.793 30.8663 129.713 30.5938 129.67 30.3388C129.626 30.0838 129.59 29.7937 129.564 29.4684C129.045 30.0311 128.447 30.5102 127.77 30.9059C126.962 31.3718 126.047 31.6048 125.027 31.6048C123.726 31.6048 122.649 31.2356 121.796 30.497C120.952 29.7497 120.53 28.6947 120.53 27.332C120.53 25.5648 121.212 24.2856 122.575 23.4944C123.322 23.0636 124.421 22.7558 125.871 22.5712L127.151 22.413C127.845 22.3251 128.342 22.2152 128.641 22.0833C129.177 21.8547 129.445 21.4986 129.445 21.0151C129.445 20.426 129.239 20.0216 128.825 19.8018C128.421 19.5732 127.823 19.4589 127.032 19.4589C126.144 19.4589 125.515 19.6787 125.146 20.1183C124.882 20.4436 124.707 20.8832 124.619 21.4371H120.992C121.071 20.1798 121.423 19.1468 122.047 18.338ZM124.843 28.4398C125.194 28.7299 125.625 28.875 126.135 28.875C126.944 28.875 127.687 28.6376 128.364 28.1628C129.05 27.6881 129.406 26.8221 129.432 25.5648V24.1669C129.195 24.3164 128.953 24.4395 128.707 24.5362C128.469 24.6241 128.14 24.7076 127.718 24.7868L126.874 24.945C126.082 25.0857 125.515 25.2571 125.172 25.4593C124.592 25.8022 124.302 26.3341 124.302 27.055C124.302 27.6969 124.482 28.1584 124.843 28.4398ZM140.602 33.6753C141.007 34.0182 141.688 34.1896 142.646 34.1896C144 34.1896 144.906 33.7368 145.363 32.8313C145.662 32.251 145.811 31.2751 145.811 29.9036V28.9805C145.451 29.5959 145.064 30.0575 144.651 30.3652C143.903 30.9366 142.932 31.2224 141.736 31.2224C139.89 31.2224 138.413 30.5762 137.305 29.2838C136.206 27.9826 135.657 26.2242 135.657 24.0087C135.657 21.8723 136.189 20.0787 137.252 18.6281C138.316 17.1686 139.824 16.4389 141.776 16.4389C142.497 16.4389 143.125 16.5488 143.662 16.7686C144.576 17.1467 145.315 17.8412 145.877 18.8523V16.7818H149.53V30.4179C149.53 32.273 149.218 33.6709 148.594 34.6116C147.521 36.2293 145.464 37.0382 142.422 37.0382C140.585 37.0382 139.086 36.6777 137.925 35.9568C136.765 35.2358 136.123 34.1588 136 32.7258H140.088C140.193 33.1654 140.365 33.4819 140.602 33.6753ZM139.969 26.2506C140.479 27.4639 141.393 28.0705 142.712 28.0705C143.591 28.0705 144.334 27.7408 144.941 27.0814C145.548 26.4132 145.851 25.3538 145.851 23.9032C145.851 22.5405 145.561 21.503 144.98 20.7909C144.409 20.0787 143.64 19.7227 142.673 19.7227C141.354 19.7227 140.444 20.3425 139.943 21.5821C139.679 22.2415 139.547 23.0548 139.547 24.0219C139.547 24.8571 139.688 25.6 139.969 26.2506ZM153.592 18.338C154.586 17.0719 156.291 16.4389 158.709 16.4389C160.283 16.4389 161.681 16.751 162.903 17.3753C164.125 17.9995 164.736 19.1776 164.736 20.9096V27.5034C164.736 27.9606 164.744 28.5145 164.762 29.1651C164.788 29.6574 164.863 29.9915 164.986 30.1674C165.109 30.3432 165.294 30.4883 165.54 30.6025V31.1564H161.452C161.338 30.8663 161.259 30.5938 161.215 30.3388C161.171 30.0838 161.135 29.7937 161.109 29.4684C160.59 30.0311 159.992 30.5102 159.316 30.9059C158.507 31.3718 157.592 31.6048 156.572 31.6048C155.271 31.6048 154.194 31.2356 153.341 30.497C152.497 29.7497 152.075 28.6947 152.075 27.332C152.075 25.5648 152.757 24.2856 154.12 23.4944C154.867 23.0636 155.966 22.7558 157.416 22.5712L158.696 22.413C159.39 22.3251 159.887 22.2152 160.186 22.0833C160.722 21.8547 160.99 21.4986 160.99 21.0151C160.99 20.426 160.784 20.0216 160.371 19.8018C159.966 19.5732 159.368 19.4589 158.577 19.4589C157.689 19.4589 157.06 19.6787 156.691 20.1183C156.427 20.4436 156.252 20.8832 156.164 21.4371H152.537C152.616 20.1798 152.968 19.1468 153.592 18.338ZM156.388 28.4398C156.74 28.7299 157.17 28.875 157.68 28.875C158.489 28.875 159.232 28.6376 159.909 28.1628C160.595 27.6881 160.951 26.8221 160.977 25.5648V24.1669C160.74 24.3164 160.498 24.4395 160.252 24.5362C160.014 24.6241 159.685 24.7076 159.263 24.7868L158.419 24.945C157.627 25.0857 157.06 25.2571 156.718 25.4593C156.137 25.8022 155.847 26.3341 155.847 27.055C155.847 27.6969 156.027 28.1584 156.388 28.4398ZM175.312 20.2502C173.8 20.2502 172.785 20.7425 172.266 21.7272C171.976 22.2811 171.831 23.1339 171.831 24.2856V31.1564H168.046V16.7818H171.633V19.2875C172.213 18.3292 172.719 17.6742 173.149 17.3225C173.853 16.7335 174.767 16.4389 175.892 16.4389C175.963 16.4389 176.02 16.4433 176.064 16.4521C176.117 16.4521 176.227 16.4565 176.394 16.4653V20.3161C176.156 20.2897 175.945 20.2722 175.761 20.2634C175.576 20.2546 175.427 20.2502 175.312 20.2502ZM185.836 20.2502C184.324 20.2502 183.308 20.7425 182.79 21.7272C182.5 22.2811 182.354 23.1339 182.354 24.2856V31.1564H178.57V16.7818H182.157V19.2875C182.737 18.3292 183.242 17.6742 183.673 17.3225C184.377 16.7335 185.291 16.4389 186.416 16.4389C186.487 16.4389 186.544 16.4433 186.588 16.4521C186.64 16.4521 186.75 16.4565 186.917 16.4653V20.3161C186.68 20.2897 186.469 20.2722 186.284 20.2634C186.1 20.2546 185.95 20.2502 185.836 20.2502ZM201.437 26.9364C201.34 27.7892 200.896 28.6552 200.105 29.5343C198.874 30.9322 197.151 31.6312 194.936 31.6312C193.107 31.6312 191.494 31.0421 190.096 29.864C188.698 28.6859 187.999 26.7693 187.999 24.1142C187.999 21.6261 188.627 19.7183 189.885 18.3907C191.151 17.0631 192.79 16.3994 194.804 16.3994C195.999 16.3994 197.076 16.6236 198.035 17.0719C198.993 17.5203 199.784 18.2281 200.408 19.1952C200.971 20.048 201.336 21.037 201.503 22.1624C201.6 22.8218 201.639 23.7713 201.622 25.011H191.784C191.836 26.4528 192.289 27.4639 193.142 28.0441C193.661 28.4046 194.285 28.5848 195.015 28.5848C195.788 28.5848 196.417 28.365 196.901 27.9254C197.164 27.6881 197.397 27.3584 197.6 26.9364H201.437ZM197.718 22.5317C197.657 21.5382 197.353 20.7865 196.808 20.2766C196.272 19.7578 195.604 19.4985 194.804 19.4985C193.933 19.4985 193.256 19.771 192.773 20.3161C192.298 20.8612 191.999 21.5997 191.876 22.5317H197.718Z" fill="#06C167"/>
<path d="M63.5573 57.674C63.5573 53.5152 66.9377 50.1124 71.0744 50.1124C73.5653 50.1124 75.767 51.3356 77.1237 53.2038L75.0553 54.6272C74.1213 53.4262 72.6979 52.67 71.0744 52.67C68.3389 52.67 66.1149 54.894 66.1149 57.6963C66.1149 60.4318 68.3389 62.7003 71.0744 62.7003C72.6979 62.7003 74.1435 61.9219 75.0553 60.6987L77.1459 62.122C75.7893 64.0124 73.5653 65.2579 71.0744 65.2579C66.9377 65.2579 63.5573 61.8552 63.5573 57.674ZM79.3397 48.956H82.0085V65.0132H79.3397V48.956ZM89.8142 53.6708C92.7499 53.6708 94.7292 54.9608 94.7292 57.674V62.5001V65.1467L92.2606 65.1689V63.6121C91.4599 64.6574 89.9254 65.2579 88.3463 65.2579C86.0334 65.2579 84.4988 64.2571 84.4988 62.3444C84.4988 60.7209 85.6108 59.5867 87.6569 59.0084C88.6132 58.6971 89.6807 58.5859 92.0827 58.408V57.7852C92.0827 56.5176 91.1486 55.6947 89.7475 55.6947C88.3463 55.6947 87.2121 56.2952 86.7673 57.6073L84.6767 56.74C85.166 54.8718 86.9452 53.6708 89.8142 53.6708ZM87.0787 62.0776C87.0787 62.9004 87.946 63.3675 88.9913 63.3675C90.4369 63.3675 92.0827 62.5668 92.0827 61.2992V59.9425C90.3257 60.0537 89.3249 60.2094 88.5243 60.454C87.6347 60.7209 87.0787 61.2992 87.0787 62.0776ZM101.922 65.2356C99.6538 65.2356 97.8079 64.5462 96.8516 62.9894L98.5196 61.4104C99.1201 62.7448 100.388 63.2118 101.922 63.2118C103.39 63.2118 104.146 62.7003 104.146 62.0108C104.146 61.3436 103.39 61.0323 101.722 60.6987C98.6308 60.076 97.1852 59.1864 97.1852 57.207C97.1852 55.3611 98.8754 53.6708 102.033 53.6708C104.48 53.6708 105.903 54.4492 106.793 56.1172L105.036 57.5184C104.435 56.2507 103.501 55.6947 102.056 55.6947C100.721 55.6947 99.854 56.2507 99.854 56.9624C99.854 57.7185 100.721 58.0744 102.456 58.4302C105.325 58.9862 106.837 59.8313 106.837 61.8107C106.837 63.8123 105.058 65.2356 101.922 65.2356ZM113.629 65.2356C111.36 65.2356 109.514 64.5462 108.558 62.9894L110.226 61.4104C110.826 62.7448 112.094 63.2118 113.629 63.2118C115.097 63.2118 115.853 62.7003 115.853 62.0108C115.853 61.3436 115.097 61.0323 113.429 60.6987C110.337 60.076 108.892 59.1864 108.892 57.207C108.892 55.3611 110.582 53.6708 113.74 53.6708C116.186 53.6708 117.61 54.4492 118.499 56.1172L116.742 57.5184C116.142 56.2507 115.208 55.6947 113.762 55.6947C112.428 55.6947 111.56 56.2507 111.56 56.9624C111.56 57.7185 112.428 58.0744 114.162 58.4302C117.031 58.9862 118.544 59.8313 118.544 61.8107C118.544 63.8123 116.765 65.2356 113.629 65.2356ZM122.444 52.1585C121.51 52.1585 120.754 51.3801 120.754 50.4683C120.754 49.5342 121.51 48.778 122.444 48.778C123.378 48.778 124.134 49.5342 124.134 50.4683C124.134 51.3801 123.378 52.1585 122.444 52.1585ZM121.11 65.0132V53.8932H123.778V65.0132H121.11ZM126.215 59.4977C126.215 56.2284 128.817 53.6486 132.02 53.6486C134.199 53.6486 136.068 54.8496 137.046 56.6955L135.067 57.7852C134.466 56.651 133.332 55.9393 131.998 55.9393C130.085 55.9393 128.617 57.5184 128.617 59.4755C128.617 61.4548 130.085 62.9449 131.998 62.9449C133.288 62.9449 134.355 62.3667 135 61.2992L137.024 62.3667C136.045 64.1681 134.177 65.2579 132.02 65.2579C128.817 65.2579 126.215 62.767 126.215 59.4977Z" fill="#06C167"/>
</svg>
