<svg width="204" height="69" viewBox="0 0 204 69" fill="none" xmlns="http://www.w3.org/2000/svg">
<path d="M6.03224 23.6236C6.41909 24.6552 6.95467 25.5372 7.63909 26.2697C8.3235 27.0023 9.13433 27.5629 10.0716 27.9516C11.0089 28.3404 12.028 28.5347 13.129 28.5347C14.2003 28.5347 15.2045 28.3328 16.1418 27.9291C17.0792 27.5254 17.8974 26.9573 18.5966 26.2249C19.2959 25.4923 19.839 24.6178 20.2258 23.6011C20.6127 22.5845 20.806 21.4484 20.806 20.1925V0.817139H25.4926V32.2123H20.8507V29.2971C19.8092 30.4033 18.5817 31.2555 17.1684 31.8536C15.7549 32.4515 14.23 32.7505 12.5934 32.7505C10.927 32.7505 9.37235 32.459 7.92915 31.8759C6.48605 31.2929 5.23623 30.4632 4.17998 29.3868C3.12372 28.3103 2.29048 27.0173 1.68053 25.5072C1.07048 23.9973 0.765503 22.3155 0.765503 20.4615V0.817139H5.45202V20.1925C5.45202 21.4484 5.64539 22.5919 6.03224 23.6236Z" fill="#010202"/>
<path d="M33.5709 0.817139V12.2539C34.6123 11.2074 35.8175 10.3778 37.1862 9.76478C38.555 9.15177 40.0428 8.84532 41.6496 8.84532C43.3159 8.84532 44.878 9.15922 46.3361 9.78711C47.7941 10.415 49.0586 11.2672 50.1299 12.3437C51.2011 13.4201 52.0492 14.6908 52.6741 16.1559C53.2989 17.6211 53.6113 19.1759 53.6113 20.8204C53.6113 22.4648 53.2989 24.0122 52.6741 25.4623C52.0492 26.9125 51.2011 28.1758 50.1299 29.2521C49.0586 30.3286 47.7941 31.1807 46.3361 31.8086C44.878 32.4365 43.3158 32.7504 41.6496 32.7504C40.0427 32.7504 38.5476 32.444 37.1639 31.831C35.7803 31.2181 34.5677 30.3883 33.5262 29.3418V32.2122H29.0629V0.817139H33.5709ZM34.0841 23.915C34.4858 24.8719 35.0438 25.7091 35.7579 26.4267C36.4721 27.1443 37.3052 27.7125 38.2574 28.1311C39.2097 28.5497 40.2362 28.759 41.3372 28.759C42.4084 28.759 43.42 28.5497 44.3722 28.1311C45.3244 27.7125 46.15 27.1444 46.8494 26.4267C47.5487 25.7092 48.1066 24.8719 48.5231 23.915C48.9397 22.9582 49.148 21.9267 49.148 20.8204C49.148 19.7141 48.9397 18.675 48.5231 17.7032C48.1066 16.7315 47.5487 15.8868 46.8494 15.1692C46.1501 14.4517 45.3245 13.891 44.3722 13.4874C43.4199 13.0838 42.4083 12.8818 41.3372 12.8818C40.266 12.8818 39.2543 13.0837 38.3021 13.4874C37.35 13.8911 36.5168 14.4517 35.8026 15.1692C35.0885 15.8868 34.5231 16.7315 34.1066 17.7032C33.69 18.675 33.4817 19.7141 33.4817 20.8204C33.4816 21.9267 33.6825 22.9582 34.0841 23.915Z" fill="#010202"/>
<path d="M56.155 16.2009C56.75 14.7656 57.5684 13.5024 58.6098 12.411C59.6511 11.3197 60.8861 10.4601 62.3144 9.83218C63.7427 9.20428 65.29 8.89038 66.9563 8.89038C68.5928 8.89038 70.1104 9.18939 71.509 9.78732C72.9074 10.3853 74.1125 11.2151 75.1242 12.2766C76.1359 13.338 76.9245 14.5938 77.4898 16.044C78.0552 17.4942 78.3378 19.0714 78.3378 20.7758V22.2558H59.8149C59.9638 23.1827 60.2614 24.0424 60.7077 24.8346C61.1541 25.6269 61.7119 26.3147 62.3814 26.8977C63.0509 27.4809 63.8096 27.9369 64.6577 28.2656C65.5058 28.5945 66.4058 28.7591 67.358 28.7591C70.0659 28.7591 72.2529 27.6378 73.9192 25.3952L77.1775 27.8171C76.0468 29.342 74.6483 30.5381 72.982 31.4051C71.3156 32.2722 69.441 32.7058 67.3581 32.7058C65.662 32.7058 64.0776 32.4067 62.6047 31.8087C61.1317 31.2108 59.8523 30.3735 58.7662 29.2971C57.6801 28.2206 56.8247 26.9574 56.1998 25.5073C55.5749 24.0571 55.2625 22.4798 55.2625 20.7756C55.2623 19.161 55.5599 17.6361 56.155 16.2009ZM62.426 14.4292C61.1614 15.4907 60.3208 16.9035 59.9042 18.6676H73.7853C73.3985 16.9035 72.5727 15.4907 71.3081 14.4292C70.0435 13.3678 68.5631 12.8371 66.8671 12.8371C65.171 12.8371 63.6906 13.3678 62.426 14.4292Z" fill="#010202"/>
<path d="M86.7734 14.9449C85.8212 15.9914 85.3451 17.4116 85.3451 19.2057V32.2124H80.837V9.33871H85.3004V12.1643C85.8658 11.2374 86.6022 10.5048 87.5097 9.9666C88.4173 9.42832 89.4959 9.15918 90.7458 9.15918H92.3079V13.3751H90.4333C88.9455 13.3752 87.7255 13.8984 86.7734 14.9449Z" fill="#010202"/>
<path d="M111.167 31.4146H102.358V11.9759H111.8C114.183 12.0111 115.871 12.7012 116.864 14.0464C117.462 14.8728 117.761 15.8619 117.761 17.0136C117.761 18.2005 117.462 19.1544 116.864 19.8753C116.53 20.2798 116.038 20.649 115.387 20.9831C116.381 21.3436 117.128 21.9151 117.629 22.6975C118.139 23.48 118.394 24.4295 118.394 25.5461C118.394 26.6978 118.104 27.7308 117.524 28.6452C117.154 29.2518 116.693 29.7617 116.139 30.175C115.515 30.6497 114.776 30.975 113.923 31.1509C113.079 31.3267 112.161 31.4146 111.167 31.4146ZM111.075 22.8558H106.235V28.0386H111.009C111.862 28.0386 112.525 27.9243 113 27.6957C113.862 27.2737 114.293 26.4648 114.293 25.2691C114.293 24.2581 113.875 23.5635 113.04 23.1855C112.574 22.9745 111.919 22.8646 111.075 22.8558ZM113.093 19.15C113.62 18.8335 113.884 18.2664 113.884 17.4488C113.884 16.5432 113.532 15.9454 112.829 15.6553C112.222 15.4531 111.448 15.352 110.508 15.352H106.235V19.638H111.009C111.862 19.638 112.556 19.4753 113.093 19.15ZM122.047 18.5961C123.04 17.3301 124.746 16.6971 127.164 16.6971C128.738 16.6971 130.135 17.0092 131.358 17.6334C132.58 18.2577 133.191 19.4358 133.191 21.1677V27.7616C133.191 28.2188 133.199 28.7727 133.217 29.4233C133.243 29.9156 133.318 30.2497 133.441 30.4255C133.564 30.6014 133.749 30.7464 133.995 30.8607V31.4146H129.907C129.793 31.1245 129.713 30.8519 129.67 30.597C129.626 30.342 129.59 30.0519 129.564 29.7266C129.045 30.2893 128.447 30.7684 127.77 31.164C126.962 31.63 126.047 31.863 125.027 31.863C123.726 31.863 122.649 31.4937 121.796 30.7552C120.952 30.0079 120.53 28.9529 120.53 27.5902C120.53 25.823 121.212 24.5438 122.575 23.7525C123.322 23.3217 124.421 23.014 125.871 22.8294L127.151 22.6711C127.845 22.5832 128.342 22.4733 128.641 22.3415C129.177 22.1129 129.445 21.7568 129.445 21.2732C129.445 20.6842 129.239 20.2798 128.825 20.06C128.421 19.8314 127.823 19.7171 127.032 19.7171C126.144 19.7171 125.515 19.9369 125.146 20.3765C124.882 20.7018 124.707 21.1414 124.619 21.6953H120.992C121.071 20.438 121.423 19.405 122.047 18.5961ZM124.843 28.6979C125.194 28.9881 125.625 29.1331 126.135 29.1331C126.944 29.1331 127.687 28.8958 128.364 28.421C129.05 27.9462 129.406 27.0802 129.432 25.823V24.4251C129.195 24.5746 128.953 24.6977 128.707 24.7944C128.469 24.8823 128.14 24.9658 127.718 25.0449L126.874 25.2032C126.082 25.3439 125.515 25.5153 125.172 25.7175C124.592 26.0604 124.302 26.5923 124.302 27.3132C124.302 27.955 124.482 28.4166 124.843 28.6979ZM140.602 33.9335C141.007 34.2763 141.688 34.4478 142.646 34.4478C144 34.4478 144.906 33.995 145.363 33.0895C145.662 32.5092 145.811 31.5333 145.811 30.1618V29.2386C145.451 29.8541 145.064 30.3156 144.651 30.6233C143.903 31.1948 142.932 31.4806 141.736 31.4806C139.89 31.4806 138.413 30.8344 137.305 29.542C136.206 28.2408 135.657 26.4824 135.657 24.2669C135.657 22.1305 136.189 20.3369 137.252 18.8863C138.316 17.4268 139.824 16.6971 141.776 16.6971C142.497 16.6971 143.125 16.807 143.662 17.0268C144.576 17.4048 145.315 18.0994 145.877 19.1105V17.04H149.53V30.6761C149.53 32.5312 149.218 33.9291 148.594 34.8698C147.521 36.4875 145.464 37.2963 142.422 37.2963C140.585 37.2963 139.086 36.9359 137.925 36.2149C136.765 35.494 136.123 34.417 136 32.984H140.088C140.193 33.4235 140.365 33.74 140.602 33.9335ZM139.969 26.5088C140.479 27.722 141.393 28.3287 142.712 28.3287C143.591 28.3287 144.334 27.999 144.941 27.3396C145.548 26.6714 145.851 25.612 145.851 24.1614C145.851 22.7986 145.561 21.7612 144.98 21.0491C144.409 20.3369 143.64 19.9809 142.673 19.9809C141.354 19.9809 140.444 20.6007 139.943 21.8403C139.679 22.4997 139.547 23.313 139.547 24.2801C139.547 25.1153 139.688 25.8582 139.969 26.5088ZM153.592 18.5961C154.586 17.3301 156.291 16.6971 158.709 16.6971C160.283 16.6971 161.681 17.0092 162.903 17.6334C164.125 18.2577 164.736 19.4358 164.736 21.1677V27.7616C164.736 28.2188 164.744 28.7727 164.762 29.4233C164.788 29.9156 164.863 30.2497 164.986 30.4255C165.109 30.6014 165.294 30.7464 165.54 30.8607V31.4146H161.452C161.338 31.1245 161.259 30.8519 161.215 30.597C161.171 30.342 161.135 30.0519 161.109 29.7266C160.59 30.2893 159.992 30.7684 159.316 31.164C158.507 31.63 157.592 31.863 156.572 31.863C155.271 31.863 154.194 31.4937 153.341 30.7552C152.497 30.0079 152.075 28.9529 152.075 27.5902C152.075 25.823 152.757 24.5438 154.12 23.7525C154.867 23.3217 155.966 23.014 157.416 22.8294L158.696 22.6711C159.39 22.5832 159.887 22.4733 160.186 22.3415C160.722 22.1129 160.99 21.7568 160.99 21.2732C160.99 20.6842 160.784 20.2798 160.371 20.06C159.966 19.8314 159.368 19.7171 158.577 19.7171C157.689 19.7171 157.06 19.9369 156.691 20.3765C156.427 20.7018 156.252 21.1414 156.164 21.6953H152.537C152.616 20.438 152.968 19.405 153.592 18.5961ZM156.388 28.6979C156.74 28.9881 157.17 29.1331 157.68 29.1331C158.489 29.1331 159.232 28.8958 159.909 28.421C160.595 27.9462 160.951 27.0802 160.977 25.823V24.4251C160.74 24.5746 160.498 24.6977 160.252 24.7944C160.014 24.8823 159.685 24.9658 159.263 25.0449L158.419 25.2032C157.627 25.3439 157.06 25.5153 156.718 25.7175C156.137 26.0604 155.847 26.5923 155.847 27.3132C155.847 27.955 156.027 28.4166 156.388 28.6979ZM175.312 20.5084C173.8 20.5084 172.785 21.0007 172.266 21.9854C171.976 22.5393 171.831 23.3921 171.831 24.5438V31.4146H168.046V17.04H171.633V19.5457C172.213 18.5873 172.719 17.9324 173.149 17.5807C173.853 16.9916 174.767 16.6971 175.892 16.6971C175.963 16.6971 176.02 16.7015 176.064 16.7103C176.117 16.7103 176.227 16.7147 176.394 16.7235V20.5743C176.156 20.5479 175.945 20.5303 175.761 20.5215C175.576 20.5128 175.427 20.5084 175.312 20.5084ZM185.836 20.5084C184.324 20.5084 183.308 21.0007 182.79 21.9854C182.5 22.5393 182.354 23.3921 182.354 24.5438V31.4146H178.57V17.04H182.157V19.5457C182.737 18.5873 183.242 17.9324 183.673 17.5807C184.377 16.9916 185.291 16.6971 186.416 16.6971C186.487 16.6971 186.544 16.7015 186.588 16.7103C186.64 16.7103 186.75 16.7147 186.917 16.7235V20.5743C186.68 20.5479 186.469 20.5303 186.284 20.5215C186.1 20.5128 185.95 20.5084 185.836 20.5084ZM201.437 27.1945C201.34 28.0473 200.896 28.9133 200.105 29.7925C198.874 31.1904 197.151 31.8894 194.936 31.8894C193.107 31.8894 191.494 31.3003 190.096 30.1222C188.698 28.9441 187.999 27.0275 187.999 24.3724C187.999 21.8843 188.627 19.9765 189.885 18.6489C191.151 17.3213 192.79 16.6575 194.804 16.6575C195.999 16.6575 197.076 16.8817 198.035 17.3301C198.993 17.7785 199.784 18.4862 200.408 19.4533C200.971 20.3061 201.336 21.2952 201.503 22.4206C201.6 23.08 201.639 24.0295 201.622 25.2691H191.784C191.836 26.711 192.289 27.722 193.142 28.3023C193.661 28.6628 194.285 28.843 195.015 28.843C195.788 28.843 196.417 28.6232 196.901 28.1836C197.164 27.9462 197.397 27.6165 197.6 27.1945H201.437ZM197.718 22.7898C197.657 21.7964 197.353 21.0447 196.808 20.5347C196.272 20.016 195.604 19.7567 194.804 19.7567C193.933 19.7567 193.256 20.0292 192.773 20.5743C192.298 21.1194 191.999 21.8579 191.876 22.7898H197.718Z" fill="#E2BE00"/>
<path d="M62.2531 61.8081C61.2982 61.8081 60.8207 61.5353 60.8207 60.9896C60.8207 60.9162 60.8312 60.8375 60.8522 60.7535C61.209 59.6517 63.0034 58.1773 66.2355 56.3304C67.2114 55.7848 68.2345 55.2601 69.3048 54.7564C67.6888 54.7249 66.099 54.4678 64.5355 53.9851C61.9645 53.1561 60.6791 51.9494 60.6791 50.3648C60.6791 47.584 64.8241 44.0267 73.114 39.6928C73.985 39.2416 74.6986 39.0159 75.2547 39.0159C75.5486 39.0159 75.8004 39.0789 76.0103 39.2048C76.2831 39.3832 76.4195 39.6666 76.4195 40.0548V40.1335C76.2936 41.1829 75.3229 42.4841 73.5075 44.0372C71.3039 45.905 68.3289 47.6942 64.5827 49.4046C64.5407 49.4151 64.504 49.4204 64.4725 49.4204L64.3309 49.3889C64.2259 49.3574 64.1735 49.2787 64.1735 49.1528C64.1735 49.0374 64.2312 48.9482 64.3466 48.8852C67.0645 47.6365 69.2629 46.4349 70.9419 45.2806C72.6208 44.1159 73.8486 43.0822 74.6251 42.1798C75.4436 41.2354 75.8529 40.5113 75.8529 40.0076C75.8529 39.7138 75.664 39.5669 75.2862 39.5669C75.1708 39.5669 74.9819 39.5931 74.7196 39.6456C74.4572 39.6875 74.0112 39.8712 73.3816 40.1965C66.97 43.5649 63.1241 46.3562 61.8439 48.5704C61.4346 49.2735 61.23 49.8716 61.23 50.3648C61.23 50.5432 61.2562 50.7059 61.3087 50.8528C61.55 51.6818 62.1692 52.3429 63.1661 52.8361C64.1735 53.3188 65.2805 53.6651 66.4873 53.8749C67.6941 54.0848 68.6805 54.1897 69.4465 54.1897C69.7613 54.1897 70.0971 54.2055 70.4539 54.237C72.9199 53.1456 75.4541 52.2379 78.0565 51.5139L78.1195 51.4981C78.2034 51.4981 78.2717 51.5244 78.3241 51.5768C78.3871 51.6188 78.4186 51.6818 78.4186 51.7657C78.4186 51.9231 78.3504 52.0228 78.2139 52.0648C75.8109 52.7364 73.5862 53.5077 71.54 54.3786C72.2536 54.515 72.8779 54.7249 73.4131 55.0082C74.0427 55.344 74.3575 55.769 74.3575 56.2832C74.3575 57.7209 71.6397 59.2792 66.204 60.9581C64.2836 61.5248 62.9667 61.8081 62.2531 61.8081ZM62.5365 61.21C63.2185 61.189 64.3886 60.9267 66.0466 60.423C69.3835 59.3736 71.6134 58.4344 72.7363 57.6054C73.4498 57.0807 73.8066 56.6453 73.8066 56.299C73.8066 55.9317 73.4708 55.6064 72.7992 55.3231C72.2011 55.0712 71.4508 54.8981 70.5483 54.8036C67.8725 56.0209 65.7213 57.1909 64.0948 58.3137C62.2899 59.552 61.3874 60.444 61.3874 60.9896C61.3874 61.0211 61.3926 61.0421 61.4031 61.0526C61.4136 61.0631 61.4241 61.0788 61.4346 61.0998C61.4451 61.1208 61.5081 61.147 61.6235 61.1785C61.7494 61.21 61.9278 61.2257 62.1587 61.2257L62.5365 61.21ZM79.426 55.0869C78.8593 55.0869 78.4343 54.8771 78.151 54.4573C77.9201 54.0586 77.8047 53.5864 77.8047 53.0407C77.8047 52.6629 77.8362 52.3114 77.8991 51.9861C77.9516 51.6608 77.9883 51.4771 78.0093 51.4352C78.0513 51.2883 78.1405 51.2148 78.2769 51.2148L78.3556 51.2305C78.492 51.2725 78.5602 51.3565 78.5602 51.4824L78.5445 51.5768C78.4291 52.0385 78.3713 52.516 78.3713 53.0092C78.3713 53.4499 78.4553 53.8277 78.6232 54.1425C78.7911 54.3944 79.0692 54.5203 79.4574 54.5203C79.9401 54.5203 80.6695 54.2999 81.6454 53.8592C82.6213 53.4185 83.6077 52.6629 84.6046 51.5926C84.657 51.5296 84.7357 51.4981 84.8407 51.4981C84.9981 51.4981 85.0873 51.5873 85.1083 51.7657C85.1083 51.8392 85.082 51.9074 85.0296 51.9703C84.0327 53.0512 82.999 53.8435 81.9287 54.3471C80.8688 54.8403 80.0346 55.0869 79.426 55.0869ZM78.4028 50.1444C78.0985 50.1444 77.9464 50.0448 77.9464 49.8454C77.9464 49.7614 77.9726 49.6932 78.0251 49.6408C78.0775 49.5778 78.2769 49.5253 78.6232 49.4833C78.9695 49.4309 79.6778 49.3837 80.7482 49.3417C80.9265 49.3417 81.0262 49.4309 81.0472 49.6093C81.0472 49.7877 80.958 49.8874 80.7796 49.9083C80.0451 49.9398 79.5047 49.9713 79.1584 50.0028C78.9695 50.0972 78.7176 50.1444 78.4028 50.1444ZM83.9907 67.5534C83.8753 67.5534 83.7651 67.5272 83.6601 67.4747C83.3978 67.3593 83.2666 66.971 83.2666 66.3099C83.2666 65.0192 84.1219 61.7189 85.8323 56.4091C86.4514 54.5203 86.9499 53.1509 87.3277 52.3009L87.6582 51.4352L86.0212 52.3481C85.549 52.6314 85.1607 52.7731 84.8564 52.7731C84.678 52.7731 84.5311 52.6996 84.4157 52.5527C84.3737 52.4688 84.3527 52.3796 84.3527 52.2851C84.3527 51.9074 84.6675 51.3932 85.2971 50.7426C86.1681 49.8401 86.9342 49.3889 87.5953 49.3889C87.9206 49.3889 88.1934 49.5201 88.4138 49.7824C88.4557 49.8349 88.4767 49.8926 88.4767 49.9556C88.4767 50.05 88.4452 50.1235 88.3823 50.1759C88.3193 50.2179 88.2616 50.2389 88.2091 50.2389C88.1147 50.2389 88.036 50.2074 87.973 50.1444C87.8996 50.029 87.7789 49.9661 87.611 49.9556C87.4956 49.9556 87.3434 49.9923 87.1545 50.0657C86.6298 50.2966 86.1471 50.6481 85.7064 51.1204C85.2762 51.5821 85.0191 51.9441 84.9351 52.2064C85.061 52.2064 85.6382 51.9179 86.6666 51.3407C87.3382 50.942 87.7631 50.7426 87.9415 50.7426C88.1829 50.7426 88.3036 50.8738 88.3036 51.1361C88.3036 51.3355 88.1514 51.7972 87.8471 52.5213C87.4798 53.3607 86.9866 54.7144 86.3675 56.5823C84.678 61.8396 83.8333 65.1241 83.8333 66.4358C83.8333 66.6247 83.87 66.8083 83.9435 66.9867H84.0222C84.2006 66.9867 84.5259 66.7926 84.9981 66.4043C85.7641 65.7537 87.1545 64.3213 89.1693 62.1072C90.5125 60.6381 92.0655 58.9853 93.8285 57.1489C95.6019 55.3126 97.5432 53.4657 99.6524 51.6083C99.7154 51.5558 99.7836 51.5296 99.8571 51.5296C100.025 51.5506 100.109 51.6398 100.109 51.7972C100.109 51.9021 100.077 51.9808 100.014 52.0333C96.8454 54.8351 93.372 58.319 89.5943 62.485C88.0307 64.2059 86.8187 65.4809 85.9582 66.3099C85.0978 67.1389 84.4419 67.5534 83.9907 67.5534ZM100.03 53.4185C99.8623 53.4185 99.7259 53.366 99.621 53.2611C99.4845 53.1037 99.4163 52.9095 99.4163 52.6787C99.4163 52.3219 99.5108 51.9441 99.6997 51.5453C99.7521 51.4299 99.8361 51.3722 99.9515 51.3722C100.14 51.4037 100.235 51.4981 100.235 51.6555L100.219 51.7657C100.062 52.154 99.983 52.4635 99.983 52.6944C99.983 52.7574 99.9935 52.8098 100.014 52.8518C100.088 52.8518 100.182 52.8256 100.298 52.7731C100.728 52.5737 101.095 52.3796 101.4 52.1907C101.882 51.9074 102.25 51.7657 102.501 51.7657C102.858 51.7657 103.315 51.9179 103.871 52.2222C104.396 52.537 104.967 52.6944 105.587 52.6944C105.65 52.6944 105.875 52.6892 106.263 52.6787C106.652 52.6682 107.544 52.2956 108.939 51.5611C108.981 51.5401 109.023 51.5296 109.065 51.5296C109.254 51.5296 109.349 51.6241 109.349 51.8129C109.349 51.9179 109.301 52.0018 109.207 52.0648C107.685 52.8728 106.479 53.2768 105.587 53.2768C104.936 53.2768 104.327 53.1246 103.761 52.8203C103.719 52.7888 103.666 52.7626 103.603 52.7416C103.11 52.4688 102.738 52.3324 102.486 52.3324C102.402 52.3324 102.318 52.3481 102.234 52.3796L101.683 52.6944C100.854 53.1771 100.303 53.4185 100.03 53.4185ZM112.009 55.2916C111.337 55.2916 110.865 55.0345 110.592 54.5203C110.445 54.237 110.372 53.8749 110.372 53.4342C110.372 53.1719 110.393 52.9253 110.435 52.6944C110.057 53.1351 109.59 53.5759 109.034 54.0166C108.792 54.195 108.598 54.2842 108.451 54.2842C108.147 54.2842 107.995 54.0953 107.995 53.7175C107.995 53.3188 108.173 52.8151 108.53 52.2064C109.076 51.304 109.637 50.8528 110.214 50.8528C110.466 50.8528 110.702 50.9525 110.923 51.1518C110.965 51.2043 110.991 51.262 111.001 51.325C111.222 51.325 111.332 51.4299 111.332 51.6398C111.332 51.7342 111.264 51.9441 111.127 52.2694C110.991 52.5842 110.923 52.9672 110.923 53.4185C110.923 54.2789 111.279 54.7092 111.993 54.7092C113.294 54.7092 115.214 53.6598 117.754 51.5611C117.817 51.5191 117.885 51.4981 117.959 51.4981C118.032 51.5086 118.09 51.5453 118.132 51.6083C118.184 51.6608 118.21 51.7185 118.21 51.7815C118.21 51.9494 117.618 52.4583 116.432 53.3083C114.658 54.5885 113.184 55.2496 112.009 55.2916ZM108.562 53.6546L108.687 53.5759C109.464 52.9253 110.046 52.3429 110.435 51.8287L110.624 51.6241C110.582 51.6136 110.545 51.5926 110.513 51.5611C110.45 51.4562 110.351 51.4037 110.214 51.4037C110.12 51.4037 110.01 51.4457 109.884 51.5296C109.527 51.771 109.228 52.1225 108.987 52.5842C108.735 53.0354 108.593 53.3922 108.562 53.6546ZM118.887 56.724C118.457 56.724 118.111 56.6348 117.848 56.4564C117.376 56.1101 117.14 55.5749 117.14 54.8508C117.14 54.7879 117.151 54.536 117.172 54.0953C117.193 53.6441 117.381 52.9043 117.738 51.8759C118.085 50.8475 118.462 49.8349 118.872 48.838C119.018 48.4812 119.155 48.1349 119.281 47.7991L116.81 47.9723C116.778 48.0562 116.715 48.1139 116.621 48.1454C116.316 48.2399 116.012 48.2871 115.708 48.2871C115.361 48.2871 115.104 48.2189 114.936 48.0824C114.884 48.0195 114.858 47.9565 114.858 47.8936C114.858 47.8516 114.868 47.8044 114.889 47.7519C114.942 47.584 115.23 47.4896 115.755 47.4686C116.028 47.4581 116.416 47.4318 116.92 47.3899C117.602 47.3374 118.462 47.2849 119.501 47.2325C119.826 46.2566 120.094 45.5587 120.304 45.139C120.451 44.8452 120.577 44.672 120.682 44.6195C120.734 44.5986 120.792 44.5881 120.855 44.5881C121.065 44.5881 121.17 44.735 121.17 45.0288C121.17 45.1547 121.138 45.3489 121.075 45.6112C121.012 45.863 120.834 46.3772 120.54 47.1538L120.524 47.1852C121.406 47.1328 122.371 47.1065 123.421 47.1065C126.18 47.1065 127.618 47.1695 127.733 47.2954C127.786 47.3584 127.812 47.4318 127.812 47.5158C127.781 47.6942 127.681 47.7834 127.513 47.7834C125.97 47.7099 124.559 47.6732 123.279 47.6732C122.198 47.6732 121.212 47.6994 120.32 47.7519C119.564 49.7457 118.908 51.0994 118.352 51.8129C117.911 53.0932 117.691 54.0848 117.691 54.7879C117.691 55.7113 118.079 56.173 118.856 56.173C119.37 56.173 120.188 55.9159 121.311 55.4018C122.434 54.8771 123.95 53.6178 125.86 51.6241C125.913 51.5716 125.976 51.5401 126.049 51.5296C126.123 51.5296 126.191 51.5558 126.254 51.6083C126.317 51.6608 126.348 51.729 126.348 51.8129C126.348 51.8864 126.322 51.9494 126.27 52.0018C124.737 53.6283 123.331 54.8246 122.051 55.5906C120.781 56.3462 119.727 56.724 118.887 56.724ZM131.133 54.8508C130.85 54.8508 130.593 54.7931 130.362 54.6777C129.816 54.3524 129.544 53.7595 129.544 52.899C129.544 52.6682 129.565 52.4163 129.607 52.1435C129.617 52.112 129.622 52.0753 129.622 52.0333L129.544 52.1277C128.662 53.1456 127.707 53.8225 126.679 54.1583C126.437 54.2212 126.233 54.2527 126.065 54.2527C125.908 54.2527 125.755 54.2107 125.608 54.1268C125.451 54.0428 125.351 53.9327 125.309 53.7962C125.267 53.6493 125.246 53.5024 125.246 53.3555C125.246 53.0092 125.383 52.5737 125.656 52.049C125.928 51.5139 126.285 51.1099 126.726 50.837C126.768 50.816 126.81 50.8055 126.852 50.8055C127.051 50.8055 127.151 50.9 127.151 51.0889C127.151 51.1938 127.104 51.2778 127.009 51.3407C126.789 51.4666 126.574 51.6765 126.364 51.9703C126.165 52.2537 126.012 52.5475 125.908 52.8518C125.834 53.0512 125.797 53.2191 125.797 53.3555C125.797 53.5759 125.892 53.686 126.081 53.686C126.217 53.686 126.359 53.6598 126.506 53.6073C127.398 53.3135 128.274 52.6892 129.134 51.7342C129.449 51.367 129.69 51.1833 129.858 51.1833C129.911 51.1833 129.963 51.1938 130.016 51.2148C130.152 51.2987 130.22 51.4562 130.22 51.687C130.22 51.8444 130.205 52.0281 130.173 52.2379C130.131 52.4898 130.11 52.7206 130.11 52.9305C130.11 53.833 130.451 54.2842 131.133 54.2842C131.207 54.2842 131.359 54.2737 131.59 54.2527C131.821 54.2317 132.277 54.0271 132.959 53.6388C133.652 53.2401 134.544 52.5527 135.635 51.5768C135.698 51.5244 135.766 51.4981 135.84 51.4981C136.018 51.5191 136.107 51.6188 136.107 51.7972C136.107 51.8707 136.076 51.9336 136.013 51.9861C133.925 53.8854 132.298 54.8403 131.133 54.8508ZM140.231 55.6221C139.665 55.6221 139.229 55.5014 138.925 55.2601C138.547 54.9558 138.358 54.557 138.358 54.0638C138.358 53.6965 138.447 53.303 138.626 52.8833C138.731 52.579 138.788 52.3586 138.799 52.2222C138.799 52.0963 138.752 52.0123 138.657 51.9703C138.573 51.9179 138.458 51.8916 138.311 51.8916C138.091 51.8916 137.734 51.9389 137.241 52.0333C136.8 52.1173 136.38 52.1592 135.981 52.1592C135.646 52.1592 135.389 52.049 135.21 51.8287C135.126 51.6923 135.084 51.5453 135.084 51.3879C135.084 51.1046 135.2 50.7741 135.43 50.3963C135.651 49.9975 135.918 49.6985 136.233 49.4991C136.517 49.3312 136.779 49.2472 137.02 49.2472H137.099C137.445 49.2892 137.618 49.4781 137.618 49.8139C137.618 50.2441 137.22 50.8318 136.422 51.5768C136.684 51.5453 136.926 51.5086 137.146 51.4666C137.66 51.3827 138.054 51.3407 138.327 51.3407C138.579 51.3407 138.783 51.3827 138.941 51.4666C139.224 51.645 139.366 51.8654 139.366 52.1277C139.366 52.4111 139.297 52.7206 139.161 53.0564C139.014 53.4657 138.941 53.7962 138.941 54.0481C138.941 54.3839 139.051 54.6357 139.271 54.8036C139.492 54.9715 139.791 55.0555 140.168 55.0555C140.431 55.0555 140.803 55.0082 141.286 54.9138C141.779 54.8194 142.514 54.515 143.49 54.0009C144.466 53.4867 145.672 52.6787 147.11 51.5768C147.162 51.5453 147.22 51.5296 147.283 51.5296C147.367 51.5296 147.435 51.5611 147.488 51.6241C147.551 51.687 147.582 51.75 147.582 51.8129C147.582 51.8969 147.54 51.9703 147.456 52.0333C144.35 54.4259 141.942 55.6221 140.231 55.6221ZM135.667 51.4824C136.601 50.6639 137.067 50.113 137.067 49.8296L137.052 49.8139C137.041 49.8034 137.026 49.7982 137.005 49.7982C136.9 49.7982 136.737 49.8664 136.517 50.0028C136.296 50.1392 136.097 50.3596 135.918 50.6639C135.74 51.0207 135.651 51.2568 135.651 51.3722C135.651 51.4352 135.656 51.4719 135.667 51.4824ZM150.116 54.0166C149.413 54.0166 148.878 53.9484 148.511 53.812C147.398 53.3188 146.842 52.6577 146.842 51.8287C146.842 51.3775 146.947 50.9839 147.157 50.6481C147.472 50.1444 147.823 49.8926 148.212 49.8926C148.38 49.8926 148.521 49.9451 148.637 50.05C148.763 50.1549 148.826 50.2861 148.826 50.4435C148.826 50.7688 148.359 51.283 147.425 51.9861C147.53 52.5422 147.96 52.9725 148.715 53.2768C149.072 53.4027 149.539 53.4657 150.116 53.4657C152.572 53.4657 154.917 52.8361 157.152 51.5768C157.205 51.5453 157.252 51.5296 157.294 51.5296C157.493 51.5296 157.593 51.6241 157.593 51.8129C157.593 51.9179 157.546 52.0018 157.451 52.0648C156.308 52.7259 155.059 53.2191 153.705 53.5444C152.362 53.8592 151.166 54.0166 150.116 54.0166ZM147.503 51.2778C147.955 50.8895 148.201 50.6376 148.243 50.5222H148.212C147.96 50.5222 147.724 50.7741 147.503 51.2778Z" fill="#E2BE00"/>
</svg>
