<svg width="204" height="67" viewBox="0 0 204 67" fill="none" xmlns="http://www.w3.org/2000/svg">
<path d="M6.03224 22.8064C6.41909 23.838 6.95467 24.7201 7.63909 25.4526C8.3235 26.1852 9.13433 26.7458 10.0716 27.1345C11.0089 27.5232 12.028 27.7175 13.129 27.7175C14.2003 27.7175 15.2045 27.5157 16.1418 27.112C17.0792 26.7083 17.8974 26.1402 18.5966 25.4077C19.2959 24.6751 19.839 23.8006 20.2258 22.784C20.6127 21.7674 20.806 20.6313 20.806 19.3754V0H25.4926V31.3952H20.8507V28.4799C19.8092 29.5861 18.5817 30.4383 17.1684 31.0365C15.7549 31.6344 14.23 31.9334 12.5934 31.9334C10.927 31.9334 9.37235 31.6418 7.92915 31.0588C6.48605 30.4757 5.23623 29.6461 4.17998 28.5696C3.12372 27.4932 2.29048 26.2002 1.68053 24.6901C1.07048 23.1802 0.765503 21.4983 0.765503 19.6444V0H5.45202V19.3754C5.45202 20.6313 5.64539 21.7748 6.03224 22.8064Z" fill="#010202"/>
<path d="M33.5709 0V11.4368C34.6123 10.3903 35.8175 9.56065 37.1862 8.94765C38.555 8.33463 40.0428 8.02818 41.6496 8.02818C43.3159 8.02818 44.878 8.34208 46.3361 8.96997C47.7941 9.59787 49.0586 10.4501 50.1299 11.5265C51.2011 12.603 52.0492 13.8737 52.6741 15.3387C53.2989 16.8039 53.6113 18.3587 53.6113 20.0033C53.6113 21.6477 53.2989 23.195 52.6741 24.6451C52.0492 26.0954 51.2011 27.3587 50.1299 28.435C49.0586 29.5114 47.7941 30.3636 46.3361 30.9915C44.878 31.6194 43.3158 31.9333 41.6496 31.9333C40.0427 31.9333 38.5476 31.6268 37.1639 31.0138C35.7803 30.4009 34.5677 29.5712 33.5262 28.5247V31.3951H29.0629V0H33.5709ZM34.0841 23.0979C34.4858 24.0548 35.0438 24.892 35.7579 25.6096C36.4721 26.3272 37.3052 26.8953 38.2574 27.3139C39.2097 27.7325 40.2362 27.9418 41.3372 27.9418C42.4084 27.9418 43.42 27.7325 44.3722 27.3139C45.3244 26.8953 46.15 26.3273 46.8494 25.6096C47.5487 24.8921 48.1066 24.0548 48.5231 23.0979C48.9397 22.1411 49.148 21.1096 49.148 20.0033C49.148 18.8969 48.9397 17.8579 48.5231 16.8861C48.1066 15.9143 47.5487 15.0697 46.8494 14.3521C46.1501 13.6346 45.3245 13.0739 44.3722 12.6703C43.4199 12.2667 42.4083 12.0647 41.3372 12.0647C40.266 12.0647 39.2543 12.2666 38.3021 12.6703C37.35 13.074 36.5168 13.6346 35.8026 14.3521C35.0885 15.0697 34.5231 15.9143 34.1066 16.8861C33.69 17.8579 33.4817 18.8969 33.4817 20.0033C33.4816 21.1096 33.6825 22.1411 34.0841 23.0979Z" fill="#010202"/>
<path d="M56.155 15.3837C56.75 13.9485 57.5684 12.6853 58.6098 11.5939C59.6511 10.5026 60.8861 9.64293 62.3144 9.01504C63.7427 8.38714 65.29 8.07324 66.9563 8.07324C68.5928 8.07324 70.1104 8.37225 71.509 8.97018C72.9074 9.5682 74.1125 10.398 75.1242 11.4594C76.1359 12.5208 76.9245 13.7767 77.4898 15.2268C78.0552 16.677 78.3378 18.2543 78.3378 19.9586V21.4387H59.8149C59.9638 22.3656 60.2614 23.2252 60.7077 24.0175C61.1541 24.8098 61.7119 25.4975 62.3814 26.0806C63.0509 26.6637 63.8096 27.1197 64.6577 27.4485C65.5058 27.7774 66.4058 27.9419 67.358 27.9419C70.0659 27.9419 72.2529 26.8206 73.9192 24.5781L77.1775 26.9999C76.0468 28.5249 74.6483 29.7209 72.982 30.588C71.3156 31.4551 69.441 31.8886 67.3581 31.8886C65.662 31.8886 64.0776 31.5895 62.6047 30.9916C61.1317 30.3937 59.8523 29.5564 58.7662 28.4799C57.6801 27.4035 56.8247 26.1402 56.1998 24.6901C55.5749 23.24 55.2625 21.6627 55.2625 19.9584C55.2623 18.3439 55.5599 16.8189 56.155 15.3837ZM62.426 13.6121C61.1614 14.6735 60.3208 16.0863 59.9042 17.8504H73.7853C73.3985 16.0863 72.5727 14.6735 71.3081 13.6121C70.0435 12.5507 68.5631 12.0199 66.8671 12.0199C65.171 12.0199 63.6906 12.5507 62.426 13.6121Z" fill="#010202"/>
<path d="M86.7734 14.1278C85.8212 15.1743 85.3451 16.5945 85.3451 18.3886V31.3953H80.837V8.5216H85.3004V11.3472C85.8658 10.4203 86.6022 9.68768 87.5097 9.14949C88.4173 8.61121 89.4959 8.34207 90.7458 8.34207H92.3079V12.558H90.4333C88.9455 12.5581 87.7255 13.0813 86.7734 14.1278Z" fill="#010202"/>
<path d="M111.167 30.5975H102.358V11.1588H111.8C114.183 11.1939 115.871 11.8841 116.864 13.2292C117.462 14.0557 117.761 15.0447 117.761 16.1965C117.761 17.3834 117.462 18.3373 116.864 19.0582C116.53 19.4626 116.038 19.8319 115.387 20.166C116.381 20.5264 117.128 21.0979 117.629 21.8804C118.139 22.6629 118.394 23.6124 118.394 24.7289C118.394 25.8807 118.104 26.9137 117.524 27.8281C117.154 28.4347 116.693 28.9446 116.139 29.3578C115.515 29.8326 114.776 30.1579 113.923 30.3337C113.079 30.5096 112.161 30.5975 111.167 30.5975ZM111.075 22.0386H106.235V27.2214H111.009C111.862 27.2214 112.525 27.1071 113 26.8785C113.862 26.4565 114.293 25.6477 114.293 24.452C114.293 23.4409 113.875 22.7464 113.04 22.3683C112.574 22.1573 111.919 22.0474 111.075 22.0386ZM113.093 18.3329C113.62 18.0164 113.884 17.4493 113.884 16.6317C113.884 15.7261 113.532 15.1283 112.829 14.8381C112.222 14.6359 111.448 14.5348 110.508 14.5348H106.235V18.8208H111.009C111.862 18.8208 112.556 18.6582 113.093 18.3329ZM122.047 17.779C123.04 16.513 124.746 15.88 127.164 15.88C128.738 15.88 130.135 16.1921 131.358 16.8163C132.58 17.4405 133.191 18.6186 133.191 20.3506V26.9445C133.191 27.4016 133.199 27.9555 133.217 28.6061C133.243 29.0985 133.318 29.4326 133.441 29.6084C133.564 29.7842 133.749 29.9293 133.995 30.0436V30.5975H129.907C129.793 30.3073 129.713 30.0348 129.67 29.7798C129.626 29.5249 129.59 29.2347 129.564 28.9094C129.045 29.4721 128.447 29.9513 127.77 30.3469C126.962 30.8129 126.047 31.0459 125.027 31.0459C123.726 31.0459 122.649 30.6766 121.796 29.9381C120.952 29.1908 120.53 28.1358 120.53 26.773C120.53 25.0059 121.212 23.7267 122.575 22.9354C123.322 22.5046 124.421 22.1969 125.871 22.0123L127.151 21.854C127.845 21.7661 128.342 21.6562 128.641 21.5243C129.177 21.2957 129.445 20.9397 129.445 20.4561C129.445 19.8671 129.239 19.4626 128.825 19.2428C128.421 19.0143 127.823 18.9 127.032 18.9C126.144 18.9 125.515 19.1198 125.146 19.5593C124.882 19.8846 124.707 20.3242 124.619 20.8781H120.992C121.071 19.6209 121.423 18.5878 122.047 17.779ZM124.843 27.8808C125.194 28.1709 125.625 28.316 126.135 28.316C126.944 28.316 127.687 28.0786 128.364 27.6039C129.05 27.1291 129.406 26.2631 129.432 25.0059V23.608C129.195 23.7574 128.953 23.8805 128.707 23.9772C128.469 24.0652 128.14 24.1487 127.718 24.2278L126.874 24.3861C126.082 24.5267 125.515 24.6982 125.172 24.9004C124.592 25.2433 124.302 25.7752 124.302 26.4961C124.302 27.1379 124.482 27.5995 124.843 27.8808ZM140.602 33.1163C141.007 33.4592 141.688 33.6307 142.646 33.6307C144 33.6307 144.906 33.1779 145.363 32.2723C145.662 31.6921 145.811 30.7162 145.811 29.3446V28.4215C145.451 29.0369 145.064 29.4985 144.651 29.8062C143.903 30.3777 142.932 30.6634 141.736 30.6634C139.89 30.6634 138.413 30.0172 137.305 28.7248C136.206 27.4236 135.657 25.6653 135.657 23.4497C135.657 21.3133 136.189 19.5198 137.252 18.0691C138.316 16.6097 139.824 15.88 141.776 15.88C142.497 15.88 143.125 15.9899 143.662 16.2097C144.576 16.5877 145.315 17.2823 145.877 18.2933V16.2228H149.53V29.859C149.53 31.714 149.218 33.1119 148.594 34.0527C147.521 35.6704 145.464 36.4792 142.422 36.4792C140.585 36.4792 139.086 36.1187 137.925 35.3978C136.765 34.6769 136.123 33.5999 136 32.1668H140.088C140.193 32.6064 140.365 32.9229 140.602 33.1163ZM139.969 25.6916C140.479 26.9049 141.393 27.5115 142.712 27.5115C143.591 27.5115 144.334 27.1819 144.941 26.5225C145.548 25.8543 145.851 24.7949 145.851 23.3442C145.851 21.9815 145.561 20.9441 144.98 20.2319C144.409 19.5198 143.64 19.1637 142.673 19.1637C141.354 19.1637 140.444 19.7835 139.943 21.0232C139.679 21.6826 139.547 22.4958 139.547 23.4629C139.547 24.2981 139.688 25.041 139.969 25.6916ZM153.592 17.779C154.586 16.513 156.291 15.88 158.709 15.88C160.283 15.88 161.681 16.1921 162.903 16.8163C164.125 17.4405 164.736 18.6186 164.736 20.3506V26.9445C164.736 27.4016 164.744 27.9555 164.762 28.6061C164.788 29.0985 164.863 29.4326 164.986 29.6084C165.109 29.7842 165.294 29.9293 165.54 30.0436V30.5975H161.452C161.338 30.3073 161.259 30.0348 161.215 29.7798C161.171 29.5249 161.135 29.2347 161.109 28.9094C160.59 29.4721 159.992 29.9513 159.316 30.3469C158.507 30.8129 157.592 31.0459 156.572 31.0459C155.271 31.0459 154.194 30.6766 153.341 29.9381C152.497 29.1908 152.075 28.1358 152.075 26.773C152.075 25.0059 152.757 23.7267 154.12 22.9354C154.867 22.5046 155.966 22.1969 157.416 22.0123L158.696 21.854C159.39 21.7661 159.887 21.6562 160.186 21.5243C160.722 21.2957 160.99 20.9397 160.99 20.4561C160.99 19.8671 160.784 19.4626 160.371 19.2428C159.966 19.0143 159.368 18.9 158.577 18.9C157.689 18.9 157.06 19.1198 156.691 19.5593C156.427 19.8846 156.252 20.3242 156.164 20.8781H152.537C152.616 19.6209 152.968 18.5878 153.592 17.779ZM156.388 27.8808C156.74 28.1709 157.17 28.316 157.68 28.316C158.489 28.316 159.232 28.0786 159.909 27.6039C160.595 27.1291 160.951 26.2631 160.977 25.0059V23.608C160.74 23.7574 160.498 23.8805 160.252 23.9772C160.014 24.0652 159.685 24.1487 159.263 24.2278L158.419 24.3861C157.627 24.5267 157.06 24.6982 156.718 24.9004C156.137 25.2433 155.847 25.7752 155.847 26.4961C155.847 27.1379 156.027 27.5995 156.388 27.8808ZM175.312 19.6912C173.8 19.6912 172.785 20.1836 172.266 21.1682C171.976 21.7221 171.831 22.5749 171.831 23.7267V30.5975H168.046V16.2228H171.633V18.7285C172.213 17.7702 172.719 17.1152 173.149 16.7635C173.853 16.1745 174.767 15.88 175.892 15.88C175.963 15.88 176.02 15.8844 176.064 15.8932C176.117 15.8932 176.227 15.8976 176.394 15.9063V19.7572C176.156 19.7308 175.945 19.7132 175.761 19.7044C175.576 19.6956 175.427 19.6912 175.312 19.6912ZM185.836 19.6912C184.324 19.6912 183.308 20.1836 182.79 21.1682C182.5 21.7221 182.354 22.5749 182.354 23.7267V30.5975H178.57V16.2228H182.157V18.7285C182.737 17.7702 183.242 17.1152 183.673 16.7635C184.377 16.1745 185.291 15.88 186.416 15.88C186.487 15.88 186.544 15.8844 186.588 15.8932C186.64 15.8932 186.75 15.8976 186.917 15.9063V19.7572C186.68 19.7308 186.469 19.7132 186.284 19.7044C186.1 19.6956 185.95 19.6912 185.836 19.6912ZM201.437 26.3774C201.34 27.2302 200.896 28.0962 200.105 28.9754C198.874 30.3733 197.151 31.0722 194.936 31.0722C193.107 31.0722 191.494 30.4832 190.096 29.3051C188.698 28.127 187.999 26.2104 187.999 23.5552C187.999 21.0671 188.627 19.1593 189.885 17.8318C191.151 16.5042 192.79 15.8404 194.804 15.8404C195.999 15.8404 197.076 16.0646 198.035 16.513C198.993 16.9614 199.784 17.6691 200.408 18.6362C200.971 19.489 201.336 20.4781 201.503 21.6034C201.6 22.2628 201.639 23.2123 201.622 24.452H191.784C191.836 25.8938 192.289 26.9049 193.142 27.4852C193.661 27.8456 194.285 28.0259 195.015 28.0259C195.788 28.0259 196.417 27.8061 196.901 27.3665C197.164 27.1291 197.397 26.7994 197.6 26.3774H201.437ZM197.718 21.9727C197.657 20.9792 197.353 20.2275 196.808 19.7176C196.272 19.1989 195.604 18.9395 194.804 18.9395C193.933 18.9395 193.256 19.2121 192.773 19.7572C192.298 20.3023 191.999 21.0408 191.876 21.9727H197.718Z" fill="#C10606"/>
<path d="M43.1207 58.7421H54.4955V61.4543H39.9025V47.2863H54.2931V49.9984H43.1207V52.913H52.4513V55.6252H43.1207V58.7421ZM72.2131 47.2863L65.8173 54.2488L72.3346 61.4543H68.3675L63.7933 56.4348L59.219 61.4543H55.4544L61.9514 54.2893L55.5556 47.2863H59.5226L63.9957 52.1844L68.4282 47.2863H72.2131ZM88.3012 47.2863V50.0794H82.1078V61.4543H78.8694V50.0794H72.7164V47.2863H88.3012ZM106.795 61.4543H102.929L98.8611 56.6372H93.7404V61.4543H90.5223V47.2863H100.298C103.759 47.2863 106.37 48.8852 106.37 51.9617C106.37 54.3703 104.771 55.868 102.423 56.4145L106.795 61.4543ZM93.7202 53.9655H100.116C101.816 53.9655 103.071 53.5607 103.071 51.982C103.071 50.4032 101.816 49.9984 100.116 49.9984H93.7202V53.9655ZM112.597 58.7421H123.972V61.4543H109.379V47.2863H123.769V49.9984H112.597V52.913H121.927V55.6252H112.597V58.7421ZM142.276 47.2863H145.737V61.4543H142.499V51.5974L136.285 59.1874H136.123L129.91 51.5974V61.4543H126.772V47.2863H130.294L136.285 54.7751L142.276 47.2863ZM152.761 58.7421H164.135V61.4543H149.542V47.2863H163.933V49.9984H152.761V52.913H162.091V55.6252H152.761V58.7421Z" fill="#C10606"/>
</svg>
